<mxfile host="Electron" agent="Mozilla/5.0 (Windows NT 10.0; Win64; x64) AppleWebKit/537.36 (KHTML, like Gecko) draw.io/24.4.13 Chrome/124.0.6367.207 Electron/30.0.6 Safari/537.36" modified="2024-08-09T11:34:40.892Z" version="24.4.13" etag="VvOVTiAaSCuoxH5Qx478" type="device">
  <diagram name="Страница — 1" id="IIPHHY5K1nuSGvXiZLv_">
    <mxGraphModel dx="492" dy="573" grid="1" gridSize="10" guides="1" tooltips="1" connect="1" arrows="1" fold="1" page="1" pageScale="1" pageWidth="2336" pageHeight="1654" math="0" shadow="0">
      <root>
        <mxCell id="0" />
        <mxCell id="1" parent="0" />
        <mxCell id="bzRGC5wD0jmV12y5DG9q-2" value="Начало" style="ellipse;whiteSpace=wrap;html=1;" parent="1" vertex="1">
          <mxGeometry x="660" y="10" width="120" height="80" as="geometry" />
        </mxCell>
        <mxCell id="bzRGC5wD0jmV12y5DG9q-3" value="Разворачивание&lt;div&gt;платформы&lt;/div&gt;" style="rounded=0;whiteSpace=wrap;html=1;" parent="1" vertex="1">
          <mxGeometry x="660" y="110" width="120" height="60" as="geometry" />
        </mxCell>
        <mxCell id="bzRGC5wD0jmV12y5DG9q-4" value="Чтение коллекции&lt;div&gt;БД и формирования объекта подключений&lt;/div&gt;" style="rounded=0;whiteSpace=wrap;html=1;" parent="1" vertex="1">
          <mxGeometry x="660" y="550" width="120" height="60" as="geometry" />
        </mxCell>
        <mxCell id="bzRGC5wD0jmV12y5DG9q-5" value="" style="endArrow=classic;html=1;rounded=0;exitX=0.5;exitY=1;exitDx=0;exitDy=0;entryX=0.5;entryY=0;entryDx=0;entryDy=0;" parent="1" source="bzRGC5wD0jmV12y5DG9q-2" target="bzRGC5wD0jmV12y5DG9q-3" edge="1">
          <mxGeometry width="50" height="50" relative="1" as="geometry">
            <mxPoint x="720" y="150" as="sourcePoint" />
            <mxPoint x="770" y="100" as="targetPoint" />
          </mxGeometry>
        </mxCell>
        <mxCell id="bzRGC5wD0jmV12y5DG9q-7" value="Существует&lt;div&gt;БД?&lt;/div&gt;" style="rhombus;whiteSpace=wrap;html=1;" parent="1" vertex="1">
          <mxGeometry x="660" y="450" width="120" height="80" as="geometry" />
        </mxCell>
        <mxCell id="bzRGC5wD0jmV12y5DG9q-8" value="" style="endArrow=classic;html=1;rounded=0;exitX=0.5;exitY=1;exitDx=0;exitDy=0;entryX=0.5;entryY=0;entryDx=0;entryDy=0;" parent="1" source="bzRGC5wD0jmV12y5DG9q-7" target="bzRGC5wD0jmV12y5DG9q-4" edge="1">
          <mxGeometry width="50" height="50" relative="1" as="geometry">
            <mxPoint x="820" y="560" as="sourcePoint" />
            <mxPoint x="870" y="510" as="targetPoint" />
          </mxGeometry>
        </mxCell>
        <mxCell id="bzRGC5wD0jmV12y5DG9q-9" value="Да" style="edgeLabel;html=1;align=center;verticalAlign=middle;resizable=0;points=[];" parent="bzRGC5wD0jmV12y5DG9q-8" vertex="1" connectable="0">
          <mxGeometry x="-0.2" y="-2" relative="1" as="geometry">
            <mxPoint x="-18" y="-8" as="offset" />
          </mxGeometry>
        </mxCell>
        <mxCell id="bzRGC5wD0jmV12y5DG9q-11" value="Завершение с ошибкой" style="ellipse;whiteSpace=wrap;html=1;aspect=fixed;" parent="1" vertex="1">
          <mxGeometry x="870" y="450" width="80" height="80" as="geometry" />
        </mxCell>
        <mxCell id="bzRGC5wD0jmV12y5DG9q-12" value="" style="endArrow=classic;html=1;rounded=0;exitX=1;exitY=0.5;exitDx=0;exitDy=0;entryX=0;entryY=0.5;entryDx=0;entryDy=0;" parent="1" source="bzRGC5wD0jmV12y5DG9q-7" target="bzRGC5wD0jmV12y5DG9q-11" edge="1">
          <mxGeometry width="50" height="50" relative="1" as="geometry">
            <mxPoint x="820" y="560" as="sourcePoint" />
            <mxPoint x="870" y="510" as="targetPoint" />
          </mxGeometry>
        </mxCell>
        <mxCell id="bzRGC5wD0jmV12y5DG9q-13" value="Нет" style="edgeLabel;html=1;align=center;verticalAlign=middle;resizable=0;points=[];" parent="bzRGC5wD0jmV12y5DG9q-12" vertex="1" connectable="0">
          <mxGeometry x="-0.3111" y="1" relative="1" as="geometry">
            <mxPoint x="-21" y="-9" as="offset" />
          </mxGeometry>
        </mxCell>
        <mxCell id="bzRGC5wD0jmV12y5DG9q-14" value="Сигнал клиентам для подключения к источникам данных" style="rounded=0;whiteSpace=wrap;html=1;" parent="1" vertex="1">
          <mxGeometry x="660" y="630" width="120" height="60" as="geometry" />
        </mxCell>
        <mxCell id="bzRGC5wD0jmV12y5DG9q-15" value="" style="endArrow=classic;html=1;rounded=0;exitX=0.5;exitY=1;exitDx=0;exitDy=0;entryX=0.5;entryY=0;entryDx=0;entryDy=0;" parent="1" source="bzRGC5wD0jmV12y5DG9q-4" target="bzRGC5wD0jmV12y5DG9q-14" edge="1">
          <mxGeometry width="50" height="50" relative="1" as="geometry">
            <mxPoint x="820" y="660" as="sourcePoint" />
            <mxPoint x="870" y="610" as="targetPoint" />
          </mxGeometry>
        </mxCell>
        <mxCell id="bzRGC5wD0jmV12y5DG9q-16" value="Запрос системных характеристик контроллеров" style="rounded=0;whiteSpace=wrap;html=1;" parent="1" vertex="1">
          <mxGeometry x="660" y="900" width="120" height="60" as="geometry" />
        </mxCell>
        <mxCell id="bzRGC5wD0jmV12y5DG9q-17" value="" style="endArrow=classic;html=1;rounded=0;exitX=0.5;exitY=1;exitDx=0;exitDy=0;entryX=0.5;entryY=0;entryDx=0;entryDy=0;" parent="1" source="bzRGC5wD0jmV12y5DG9q-14" target="vs_uoJFFmQqxPUK6axnL-11" edge="1">
          <mxGeometry width="50" height="50" relative="1" as="geometry">
            <mxPoint x="820" y="660" as="sourcePoint" />
            <mxPoint x="870" y="610" as="targetPoint" />
          </mxGeometry>
        </mxCell>
        <mxCell id="bzRGC5wD0jmV12y5DG9q-19" value="Количество контроллеров&amp;nbsp;&lt;div&gt;&amp;gt;0?&lt;/div&gt;" style="rhombus;whiteSpace=wrap;html=1;" parent="1" vertex="1">
          <mxGeometry x="660" y="800" width="120" height="80" as="geometry" />
        </mxCell>
        <mxCell id="bzRGC5wD0jmV12y5DG9q-20" value="" style="endArrow=classic;html=1;rounded=0;exitX=0.5;exitY=1;exitDx=0;exitDy=0;entryX=0.5;entryY=0;entryDx=0;entryDy=0;" parent="1" source="vs_uoJFFmQqxPUK6axnL-11" target="bzRGC5wD0jmV12y5DG9q-19" edge="1">
          <mxGeometry width="50" height="50" relative="1" as="geometry">
            <mxPoint x="820" y="860" as="sourcePoint" />
            <mxPoint x="870" y="810" as="targetPoint" />
          </mxGeometry>
        </mxCell>
        <mxCell id="bzRGC5wD0jmV12y5DG9q-21" value="Вывод сообщения об отсутствии подключений&lt;div&gt;&lt;br&gt;&lt;/div&gt;" style="ellipse;whiteSpace=wrap;html=1;aspect=fixed;" parent="1" vertex="1">
          <mxGeometry x="870" y="800" width="80" height="80" as="geometry" />
        </mxCell>
        <mxCell id="bzRGC5wD0jmV12y5DG9q-22" value="" style="endArrow=classic;html=1;rounded=0;exitX=1;exitY=0.5;exitDx=0;exitDy=0;entryX=0;entryY=0.5;entryDx=0;entryDy=0;" parent="1" source="bzRGC5wD0jmV12y5DG9q-19" target="bzRGC5wD0jmV12y5DG9q-21" edge="1">
          <mxGeometry width="50" height="50" relative="1" as="geometry">
            <mxPoint x="820" y="610" as="sourcePoint" />
            <mxPoint x="870" y="560" as="targetPoint" />
          </mxGeometry>
        </mxCell>
        <mxCell id="bzRGC5wD0jmV12y5DG9q-23" value="Нет" style="edgeLabel;html=1;align=center;verticalAlign=middle;resizable=0;points=[];" parent="bzRGC5wD0jmV12y5DG9q-22" vertex="1" connectable="0">
          <mxGeometry x="-0.3778" y="-2" relative="1" as="geometry">
            <mxPoint x="-18" y="-12" as="offset" />
          </mxGeometry>
        </mxCell>
        <mxCell id="bzRGC5wD0jmV12y5DG9q-24" value="Сигнал для DeviceManager" style="rounded=0;whiteSpace=wrap;html=1;" parent="1" vertex="1">
          <mxGeometry x="660" y="1160" width="120" height="70" as="geometry" />
        </mxCell>
        <mxCell id="bzRGC5wD0jmV12y5DG9q-25" value="" style="endArrow=classic;html=1;rounded=0;exitX=0.5;exitY=1;exitDx=0;exitDy=0;entryX=0.5;entryY=0;entryDx=0;entryDy=0;" parent="1" source="bzRGC5wD0jmV12y5DG9q-19" target="bzRGC5wD0jmV12y5DG9q-16" edge="1">
          <mxGeometry width="50" height="50" relative="1" as="geometry">
            <mxPoint x="820" y="1160" as="sourcePoint" />
            <mxPoint x="870" y="1110" as="targetPoint" />
          </mxGeometry>
        </mxCell>
        <mxCell id="vs_uoJFFmQqxPUK6axnL-15" value="Да" style="edgeLabel;html=1;align=center;verticalAlign=middle;resizable=0;points=[];" parent="bzRGC5wD0jmV12y5DG9q-25" vertex="1" connectable="0">
          <mxGeometry x="0.2" y="-1" relative="1" as="geometry">
            <mxPoint x="-19" y="-12" as="offset" />
          </mxGeometry>
        </mxCell>
        <mxCell id="bzRGC5wD0jmV12y5DG9q-26" value="Запуск циклического опроса контроллеров" style="rounded=0;whiteSpace=wrap;html=1;" parent="1" vertex="1">
          <mxGeometry x="660" y="1260" width="120" height="60" as="geometry" />
        </mxCell>
        <mxCell id="bzRGC5wD0jmV12y5DG9q-27" value="" style="endArrow=classic;html=1;rounded=0;exitX=0.5;exitY=1;exitDx=0;exitDy=0;entryX=0.5;entryY=0;entryDx=0;entryDy=0;" parent="1" source="bzRGC5wD0jmV12y5DG9q-24" target="bzRGC5wD0jmV12y5DG9q-26" edge="1">
          <mxGeometry width="50" height="50" relative="1" as="geometry">
            <mxPoint x="820" y="1360" as="sourcePoint" />
            <mxPoint x="870" y="1310" as="targetPoint" />
          </mxGeometry>
        </mxCell>
        <mxCell id="bzRGC5wD0jmV12y5DG9q-28" value="Конец" style="ellipse;whiteSpace=wrap;html=1;aspect=fixed;" parent="1" vertex="1">
          <mxGeometry x="680" y="1350" width="80" height="80" as="geometry" />
        </mxCell>
        <mxCell id="bzRGC5wD0jmV12y5DG9q-29" value="" style="endArrow=classic;html=1;rounded=0;exitX=0.5;exitY=1;exitDx=0;exitDy=0;entryX=0.5;entryY=0;entryDx=0;entryDy=0;" parent="1" source="bzRGC5wD0jmV12y5DG9q-26" target="bzRGC5wD0jmV12y5DG9q-28" edge="1">
          <mxGeometry width="50" height="50" relative="1" as="geometry">
            <mxPoint x="820" y="1360" as="sourcePoint" />
            <mxPoint x="870" y="1310" as="targetPoint" />
          </mxGeometry>
        </mxCell>
        <mxCell id="vs_uoJFFmQqxPUK6axnL-1" value="Создание служб" style="rounded=0;whiteSpace=wrap;html=1;" parent="1" vertex="1">
          <mxGeometry x="660" y="190" width="120" height="60" as="geometry" />
        </mxCell>
        <mxCell id="vs_uoJFFmQqxPUK6axnL-2" value="" style="endArrow=classic;html=1;rounded=0;exitX=0.5;exitY=1;exitDx=0;exitDy=0;entryX=0.5;entryY=0;entryDx=0;entryDy=0;" parent="1" source="bzRGC5wD0jmV12y5DG9q-3" target="vs_uoJFFmQqxPUK6axnL-1" edge="1">
          <mxGeometry width="50" height="50" relative="1" as="geometry">
            <mxPoint x="820" y="450" as="sourcePoint" />
            <mxPoint x="870" y="400" as="targetPoint" />
          </mxGeometry>
        </mxCell>
        <mxCell id="vs_uoJFFmQqxPUK6axnL-3" value="Сигнал для создания других объектов" style="rounded=0;whiteSpace=wrap;html=1;fillColor=#fa6800;fontColor=#000000;strokeColor=#C73500;" parent="1" vertex="1">
          <mxGeometry x="660" y="270" width="120" height="60" as="geometry" />
        </mxCell>
        <mxCell id="vs_uoJFFmQqxPUK6axnL-4" value="" style="endArrow=classic;html=1;rounded=0;exitX=0.5;exitY=1;exitDx=0;exitDy=0;entryX=0.5;entryY=0;entryDx=0;entryDy=0;" parent="1" source="vs_uoJFFmQqxPUK6axnL-1" target="vs_uoJFFmQqxPUK6axnL-3" edge="1">
          <mxGeometry width="50" height="50" relative="1" as="geometry">
            <mxPoint x="730" y="250" as="sourcePoint" />
            <mxPoint x="730" y="290" as="targetPoint" />
          </mxGeometry>
        </mxCell>
        <mxCell id="vs_uoJFFmQqxPUK6axnL-6" value="Ожидание команды пользователя" style="shape=hexagon;perimeter=hexagonPerimeter2;whiteSpace=wrap;html=1;fixedSize=1;" parent="1" vertex="1">
          <mxGeometry x="660" y="355" width="120" height="70" as="geometry" />
        </mxCell>
        <mxCell id="vs_uoJFFmQqxPUK6axnL-7" value="Ввод" style="triangle;whiteSpace=wrap;html=1;" parent="1" vertex="1">
          <mxGeometry x="520" y="350" width="60" height="80" as="geometry" />
        </mxCell>
        <mxCell id="vs_uoJFFmQqxPUK6axnL-8" value="" style="endArrow=classic;html=1;rounded=0;exitX=0.5;exitY=1;exitDx=0;exitDy=0;entryX=0.5;entryY=0;entryDx=0;entryDy=0;" parent="1" source="vs_uoJFFmQqxPUK6axnL-3" target="vs_uoJFFmQqxPUK6axnL-6" edge="1">
          <mxGeometry width="50" height="50" relative="1" as="geometry">
            <mxPoint x="820" y="450" as="sourcePoint" />
            <mxPoint x="870" y="400" as="targetPoint" />
          </mxGeometry>
        </mxCell>
        <mxCell id="vs_uoJFFmQqxPUK6axnL-9" value="" style="endArrow=classic;html=1;rounded=0;exitX=1;exitY=0.5;exitDx=0;exitDy=0;entryX=0;entryY=0.5;entryDx=0;entryDy=0;" parent="1" source="vs_uoJFFmQqxPUK6axnL-7" target="vs_uoJFFmQqxPUK6axnL-6" edge="1">
          <mxGeometry width="50" height="50" relative="1" as="geometry">
            <mxPoint x="820" y="345" as="sourcePoint" />
            <mxPoint x="870" y="295" as="targetPoint" />
          </mxGeometry>
        </mxCell>
        <mxCell id="vs_uoJFFmQqxPUK6axnL-10" value="" style="endArrow=classic;html=1;rounded=0;exitX=0.5;exitY=1;exitDx=0;exitDy=0;entryX=0.5;entryY=0;entryDx=0;entryDy=0;" parent="1" source="vs_uoJFFmQqxPUK6axnL-6" target="bzRGC5wD0jmV12y5DG9q-7" edge="1">
          <mxGeometry width="50" height="50" relative="1" as="geometry">
            <mxPoint x="820" y="580" as="sourcePoint" />
            <mxPoint x="870" y="530" as="targetPoint" />
          </mxGeometry>
        </mxCell>
        <mxCell id="vs_uoJFFmQqxPUK6axnL-11" value="Ожидание результата подключений" style="shape=hexagon;perimeter=hexagonPerimeter2;whiteSpace=wrap;html=1;fixedSize=1;" parent="1" vertex="1">
          <mxGeometry x="660" y="710" width="120" height="70" as="geometry" />
        </mxCell>
        <mxCell id="vs_uoJFFmQqxPUK6axnL-12" value="Ответ клиентов" style="triangle;whiteSpace=wrap;html=1;" parent="1" vertex="1">
          <mxGeometry x="520" y="705" width="60" height="80" as="geometry" />
        </mxCell>
        <mxCell id="vs_uoJFFmQqxPUK6axnL-13" value="" style="endArrow=classic;html=1;rounded=0;exitX=1;exitY=0.5;exitDx=0;exitDy=0;entryX=0;entryY=0.5;entryDx=0;entryDy=0;" parent="1" source="vs_uoJFFmQqxPUK6axnL-12" target="vs_uoJFFmQqxPUK6axnL-11" edge="1">
          <mxGeometry width="50" height="50" relative="1" as="geometry">
            <mxPoint x="700" y="580" as="sourcePoint" />
            <mxPoint x="750" y="530" as="targetPoint" />
          </mxGeometry>
        </mxCell>
        <mxCell id="vs_uoJFFmQqxPUK6axnL-16" value="Ожидание результата подключений" style="shape=hexagon;perimeter=hexagonPerimeter2;whiteSpace=wrap;html=1;fixedSize=1;" parent="1" vertex="1">
          <mxGeometry x="660" y="980" width="120" height="70" as="geometry" />
        </mxCell>
        <mxCell id="vs_uoJFFmQqxPUK6axnL-17" value="Ответ прокси" style="triangle;whiteSpace=wrap;html=1;" parent="1" vertex="1">
          <mxGeometry x="520" y="975" width="60" height="80" as="geometry" />
        </mxCell>
        <mxCell id="vs_uoJFFmQqxPUK6axnL-18" value="" style="endArrow=classic;html=1;rounded=0;exitX=0.5;exitY=1;exitDx=0;exitDy=0;entryX=0.5;entryY=0;entryDx=0;entryDy=0;" parent="1" source="bzRGC5wD0jmV12y5DG9q-16" target="vs_uoJFFmQqxPUK6axnL-16" edge="1">
          <mxGeometry width="50" height="50" relative="1" as="geometry">
            <mxPoint x="700" y="980" as="sourcePoint" />
            <mxPoint x="750" y="930" as="targetPoint" />
          </mxGeometry>
        </mxCell>
        <mxCell id="vs_uoJFFmQqxPUK6axnL-19" value="" style="endArrow=classic;html=1;rounded=0;exitX=1;exitY=0.5;exitDx=0;exitDy=0;entryX=0;entryY=0.5;entryDx=0;entryDy=0;" parent="1" source="vs_uoJFFmQqxPUK6axnL-17" target="vs_uoJFFmQqxPUK6axnL-16" edge="1">
          <mxGeometry width="50" height="50" relative="1" as="geometry">
            <mxPoint x="700" y="980" as="sourcePoint" />
            <mxPoint x="750" y="930" as="targetPoint" />
          </mxGeometry>
        </mxCell>
        <mxCell id="vs_uoJFFmQqxPUK6axnL-20" value="" style="endArrow=classic;html=1;rounded=0;exitX=0.5;exitY=1;exitDx=0;exitDy=0;entryX=0.5;entryY=0;entryDx=0;entryDy=0;" parent="1" source="vs_uoJFFmQqxPUK6axnL-16" target="vs_uoJFFmQqxPUK6axnL-21" edge="1">
          <mxGeometry width="50" height="50" relative="1" as="geometry">
            <mxPoint x="700" y="980" as="sourcePoint" />
            <mxPoint x="780" y="1060" as="targetPoint" />
          </mxGeometry>
        </mxCell>
        <mxCell id="vs_uoJFFmQqxPUK6axnL-21" value="Завершение формирования объекта соединений" style="rounded=0;whiteSpace=wrap;html=1;" parent="1" vertex="1">
          <mxGeometry x="660" y="1070" width="120" height="60" as="geometry" />
        </mxCell>
        <mxCell id="vs_uoJFFmQqxPUK6axnL-22" value="" style="endArrow=classic;html=1;rounded=0;exitX=0.5;exitY=1;exitDx=0;exitDy=0;entryX=0.5;entryY=0;entryDx=0;entryDy=0;" parent="1" source="vs_uoJFFmQqxPUK6axnL-21" target="bzRGC5wD0jmV12y5DG9q-24" edge="1">
          <mxGeometry width="50" height="50" relative="1" as="geometry">
            <mxPoint x="700" y="1080" as="sourcePoint" />
            <mxPoint x="750" y="1030" as="targetPoint" />
          </mxGeometry>
        </mxCell>
      </root>
    </mxGraphModel>
  </diagram>
</mxfile>
